<?xml version="1.0" encoding="UTF-8"?>
<svg id="Ebene_1" data-name="Ebene 1" xmlns="http://www.w3.org/2000/svg" viewBox="0 0 253.67 329.15">
  <defs>
    <linearGradient id="logoGradient" x1="0%" y1="0%" x2="100%" y2="100%">
      <stop offset="0%" stop-color="#00c3ff"/>
      <stop offset="100%" stop-color="#ff2d9b"/>
    </linearGradient>
    <style>
      .cls-1 {
        fill: url(#logoGradient);
      }
    </style>
  </defs>
  <path class="cls-1" d="M137.78,148.69c-5.68-4.96-.31-13.65-.31-13.65,0,0-3.62-3.81-3.83-4.02,0,0-2.27,6.3-2.27,6.72,0,0-1.13,3.61.2,8.06.79,2.56,3.51,8.16,8.69,7.95,5.16-.2,7.44-4.75,6.82-5.26-.62-.52-3.62,5.16-9.31.2Z"/>
  <path class="cls-1" d="M144.58,144.32c.62.07,1.85-.3,1.59-1.41-.09-.39-.17-1.34-1.23-1.41-.42-.02-1.39.39-1.41,1.41,0,.4.64,1.37,1.06,1.41Z"/>
  <path class="cls-1" d="M177.27,110.86c-2.64-1.32,2.31-3.3,1.99-4.29-.34-.99-4.63,2.97-4.63,2.97,0,0-5.29-8.92-18.51-12.23l.34-5.61s-6.28,8.92-7.29,8.26c-.98-.66-3.96-6.94-3.96-6.94,0,0,.34,6.94-1.65,6.94s-1.32-5.62-25.11-6.61c0,0-1.98-.66-1.98-3.64s-5.95-18.17-15.21-24.12c-9.25-5.94-16.18-13.55-53.87-12.55,0,0,17.86,30.4,20.17,35.69,0,0,6.61,10.91,39.66,20.49,0,0,.65,14.86-8.58,26.1-9.26,11.24-19.18,19.17-23.81,45.94-4.62,26.76-3.3,40.98-3.3,40.98,0,0,8.91-10.57,8.91-14.87s2.99,5.29,2.99,5.29c0,0,1.66-4.63,2.31-10.91l2.64,3.97,1.32-7.28s7.61,8.93,7.61,14.22-7.28,18.51-3.97,23.46l3.31-3.97,1.65,14.54,3.31-5.28s1.98,13.06,3.3,17.69c1.33,4.62,0-13.39,1.98-13.39s1.65,13.87,9.59,26.43c0,0,0-2.31,2.32-1.98,2.3.33,6.27,7.93,6.27,7.93,0,0,3.63-3.97,4.62-2.64,1,1.32,4.63,7.27,4.63,7.27v-4.96s-8.27-11.9-6.28-13.22c1.98-1.32,8.27,11.9,16.52,14.87,0,0-3.63-10.24,2.65-20.81,0,0,.99-2.65-.66-5.29-1.66-2.65-21.09-11.24-26.77-14.21-6.98-3.66-10.9-9.58-10.9-9.58l.33,4.95s-7.94-2.32-4.3-24.12c2.96-8.6,5.29-13.22,5.29-13.22l1.98,3.63s-.66-7.93.65-8.59c1.33-.66,5.47,8.76-.33,19.17-1.12,2.04-1.64-1.33-1.64-1.33,0,0,.66-4.62-.66-3.63-1.32.99-2.33,3.63-1.99,8.59.33,4.96,4.93,16.13,11.2,18.11,6.29,1.99,23.18,10.98,27.47,14.61,4.29,3.63,7.68,7.61,9.59,8.26.7.24,1.35.29,1.96.23.46-.05.88-.15,1.28-.32,2.57-1.06,4.03-4.2,4.03-4.2,0,0-14.22-6.28-17.53-19.83-2.97-8.92-24.78-11.9-27.1-11.9,0,0-1.65-.33,1.32-3.96,2.98-3.64,2.66-22.48,1.66-25.12-.99-2.65,0-2.97,1.32-2.97s16.99,15.48,18.24,20.3c1.27,4.89,8.21,24.98,10.52,27.95,2.32,2.98,7.28,9.92,18.84,10.91,10.91,5.61,15.2-8.26,15.2-8.26l-5.61-3.63s8.59-4.97,9.57-6.95c1-1.98,5.97-7.27,5.97-7.27,0,0-10.26-24.78-10.26-42.63,0,0,0,19.83,4.29,40.65l-3.63,3.3s0-9.91-.66-14.53c-.65-4.63-5.62-19.51-3.96-32.06,1.65-12.56,3.31-20.82,3.31-20.82,0,0-11.04-3.17-10.58-4.95.42-1.71,8.98,1.61,9.84,1.95-.83-.45-8.61-4.65-7.53-5.92.68-.8,9.82,3.82,9.82,3.82,0,0,3.31-12.13,4.96-13.12,1.65-.99,4.73-1.28,4.73-1.28,0,0-16.54-23.13-19.18-24.46ZM94.34,192.25c.5,1.5-1.1,3.78-2.68,2.37-1.59-1.42-2.85-4.42-2.05-8.51.79-4.1,3.94-8.99,5.36-8.51,0,0-3.15,7.1-.63,14.66ZM98.27,203.59c-2.24-3.36-3.36-9.72-1.1-14.66,1.73-3.78,3,.79,3,.79,0,0-.31,4.41-.31,6.46s2.84,4.42,2.98,6.31c.16,1.89-2.68,3.94-4.57,1.1ZM133.59,229.45c1.74-1.43,9.14,3.15,10.4,3.62,1.26.48.16,1.89.16,1.89-1.58.16-2.53-1.26-3.63-1.73-1.1-.47-4.41-1.11-5.52-1.42h0c-1.1-.32-2.97-1.1-1.41-2.36ZM123.5,107.42c1.1-1.26,5.36,2.05,11.04,2.2,5.67.16,21.61-.22,22.39-.15,3.79.31,5.36,6.3,7.1,8.67,1.73,2.37.16,23.02.16,25.38s-1.26,5.05-3.32,3.94c-2.04-1.1-5.99-23.33-5.99-23.33-.15-3-2.84-4.1-2.84-4.1-14.34-1.9-26.48-7.57-27.74-8.68-1.26-1.1-1.89-2.68-.79-3.94ZM159.35,162.53s1.89-.09,2.51.76c.62.85-.46,1.47-2.2,1.37-1.76-.1-3.54-.75-3.65-1.72-.12-.98,3.34-.41,3.34-.41ZM155.65,158.09c.31-.94,3.21,1.03,3.21,1.03,0,0,1.75.72,1.95,1.76.21,1.03-1.02,1.14-2.57.31-1.55-.83-2.9-2.17-2.59-3.1ZM79.12,67.07s1.48,12.89,7.43,17.35c5.95,4.47,15.36,5.45,15.36,5.45l.5,7.44s-19.34-7.93-23.8-11.4c-4.45-3.47-10.41-21.81-10.41-21.81-7.92-5.46-4.95-5.95-4.95-5.95,41.14,1.49,51.56,38.67,51.56,38.67l-3.96,7.43c-13.39-35.19-31.72-37.18-31.72-37.18ZM113.32,129.53c5.47-3.97-7.89,19.55,11.45,35.91,2.21,1.87,2.21,6.31,2.21,6.31-25.29-18.34-13.65-42.22-13.65-42.22ZM119.4,186.1c-1.26.94.79,4.25-.79,4.73-1.57.47-1.41-3.78-1.41-3.78.16-3.79,0-3.15,3.63-4.1,3.62-.95,3.94-.95,4.57-.16,1.54,2.46-4.73,2.37-6,3.31ZM129.02,176.48c-2.52,0-3.32-1.89-3.32-1.89,0,0-3-.63-2.67-1.9.31-1.26,3.16-.15,4.57.64,0,0,3.95,3.15,1.43,3.15ZM145.85,155.71c-.52.42-7.95,6.2-15.71-3.51-7.73-9.72-1.45-20.87-1.45-20.87.73-1.76,1.86-2.59,1.24-4.65-1.34-3.62-2.89-6.71-1.55-7.75,1.34-1.03,3.41,2.27,3.41,2.27,1.97,3.31,16.64,18.09,21.7,20.15,5.06,2.07,2.89,4.13,2.89,4.13-.31,1.24-4.96,1.45-4.96,1.45-1.45,5.9-5.58,8.78-5.58,8.78ZM171.98,232.81c-.99,3.31-5.61-4.29-8.25-6.61-2.64-2.31-6.28-.66-11.9-8.92-5.63-8.26,4.3-14.21,4.3-14.21,0,0,10.58,11.9,12.88,15.53,2.32,3.63,3.97,10.91,2.97,14.21ZM185.21,224.22s-1,2.31-3.97,2.31-9.91-4.96-6.94-4.96,9.25,2.65,10.91,2.65ZM174.95,203.4c.66,6.28,2.65,14.87,1,14.87s-7.18-10.53-7.83-11.52c-.67-.99,1.73-13.24.56-18.88-.41-1.97-7.6-17.85-7.6-17.85,0,0-1.9-3.05-.78-3.36h0c1.14-.31,2.17,1.45,2.17,1.45,0,0,.59,2.24,4.88,9.51,4.31,7.27,6.95,19.5,7.6,25.78Z"/>
  <polygon class="cls-1" points="141.16 221.25 142.26 222.21 142.73 220.77 141.47 220.63 141.16 221.25"/>
  <path class="cls-1" d="M131.86,208.48c.31-1.27.46-6.93,0-7.73-.47-.79-1.43-2.21-2.06-2.04-.63.15-.31,8.5-.31,8.5,1.27.95,2.05,2.53,2.37,1.27Z"/>
  <path class="cls-1" d="M188.41,154.88l.1,4.54c9.39-.61,12.2-12.18,12.2-12.18h-4.15c-2.67,5.58-8.15,7.64-8.15,7.64Z"/>
  <path class="cls-1" d="M122.66,59.06s6.96-1.16,6.96-.34,1.65,3.15-.17,3.32c-1.82.17-6.63.17-6.63.17l.34,6.3s24.77,4.68,20.19,7.95c-1.16.83-3.65-.17-5.62-1-1.54-.64-13.75-1.33-15.24-.17-1.49,1.16-.67,3.14-.67,3.14,0,0,16.07-.83,19.88,3.32,3.8,4.13,1.97,3.64,1.97,3.64,0,0,4.82,2.65,4.98,4.47l-1.16-23.35s-7.44-3.48-8.94-3.48-1.16-2.98-.33-3.31c.83-.33,8.44,1.82,8.44,1.82l-.66-6.96s-9.76-5.96-18.71-3.98c-1.82-.83-2.66-2.64-1.16-3.3,1.49-.67,14.4,0,18.71,2.32l-1.65-5.97s-13.75-4.97-21.03-2.32c0,0-2.99-1.66-.83-2.65,2.15-.99,11.1-4.14,16.72-3.47,0,0-17.38-22.52-47.68-10.27,0,0-1.82-.83.17.83,1.99,1.66,20.69,2.48,27.64,14.9,6.96,12.42,4.46,18.38,4.46,18.38Z"/>
  <path class="cls-1" d="M141.87,84.89c-4.79-3.8-18.7-2.81-19.54-1.82-.83,1-.65,8.45-.65,8.45l5.96.32c-1.32-2.15,1.82-2.32,1.82-2.32,0,0-2.15-.66-.83-2.98,1.08-1.89,11.26,4.8,11.26,4.8-1.33-7.45,1.98-6.45,1.98-6.45Z"/>
  <path class="cls-1" d="M87.88,219.98c.39-.95.74-1.84,1.05-2.64.33-.87.6-1.62.79-2.15.13-.4.23-.68.27-.81-.14.31-.74,1.65-1.45,3.66-.21.59-.42,1.23-.65,1.93Z"/>
  <path class="cls-1" d="M135.96,204.54c-.32-.95-1.89-1.42-1.89-.95s-.47,5.83-.47,5.83l1.89,1.42s.64-5.83.47-6.3Z"/>
  <polygon class="cls-1" points="139.27 217.94 136.43 216.68 135.96 218.26 138.64 219.84 139.27 217.94"/>
  <path class="cls-1" d="M155.44,44.33l.17-.5s2.81-4.8,4.96-3.97c2.16.83-2.32,6.95-2.32,6.95l1.82,1.99s4.96-5.96,6.12-4.8c1.16,1.16-3.98,7.95-3.98,7.95l2.32,4.31s3.48-1.32,3.48.33-3.81,2.15-3.81,2.15c-.33,8.45-4.31,14.57-5.96,19.05-1.65,4.46-5.79,12.58-4.96,12.75.83.17,2.81-4.3,2.97-5.31.17-.98,3.48-.32,4.15.17.65.5,1.32,9.93,1.32,9.93,3.97,1.17,11.26,7.95,12.25,6.79,1.01-1.16.17-2.65.17-2.65,0,0-6.3-4.97-9.28-7.44-2.97-2.49.83-3.15.83-3.15,2.48-1.32,10.76,8.11,11.09,5.79.5-6.45-10.6-13.9-11.59-15.06-1-1.16-1.33-.66.67-1.99,1.97-1.33,14.06,7.61,14.06,7.61,0,0,1.16,1.16.83-2.98-.34-4.13-11.92-10.42-12.58-10.42s-2.48-2.65.33-3.64c2.81-1,15.4,6.45,15.4,6.45,0,0,1.16-1.66.67-3.98-.5-2.32-9.27-7.28-10.6-7.94-1.31-.67-.5-2.15-.5-2.15-.17-3.65,13.42,3.8,13.42,3.8-4.64-10.43-14.75-8.28-14.9-11.92-.17-3.65,14.9,3.47,14.9,3.47-6.63-11.43-14.9-7.29-14.9-11.26,0-1.82,11.75,0,11.75,0-12.91-13.9-33.45-9.6-33.94-6.12-.49,3.48,5.63,5.8,5.63,5.8Z"/>
  <polygon class="cls-1" points="137.85 211 137.53 212.9 139.59 214.94 137.85 211"/>
  <path class="cls-1" d="M211.34,112.59c9.01-11.48,14.14-28.85,15.24-51.65l.91-18.1-12.41,13.15c-.06.06-4.05,4.09-13.39,9.15,1.11-7.19.35-16-5.56-24.99-7.24-11.01-19.17-16.83-34.51-16.83-5.96,0-11.32.9-15.32,1.85-5.16-6.44-16.9-17.62-36.22-17.62-9.23,0-19.05,2.62-29.19,7.79l-.65.33-.56.46c-2.62,2.16-5.42,6.4-4.67,11.26.73,4.7,4.29,8.36,10.58,10.88,1.18.47,2.53.98,3.97,1.53,3.95,1.49,8.87,3.35,12.8,5.44,4.79,2.54,5.71,4.15,5.82,4.39.17,1.36.31,2.6.42,3.73-9.35-6.79-27.26-13.96-62.97-13.96-3.02,0-6.17.05-9.37.15l-1.04.03-.98.35c-3.7,1.31-7.75,4.4-8.05,9.18-.27,4.29,2.35,7.83,7.78,10.55,5.69,2.84,16.8,22.26,21.18,33.63l.33.88c2.13,5.76,8.9,11.2,21.95,17.66,4.92,2.43,9.87,4.58,13.59,6.18-1.42,2.97-3.4,6.7-5.83,10.17-1.21,1.73-2.53,3.48-3.94,5.34-5.87,7.77-13.18,17.43-16.59,32.17-4.01,17.33-4.62,29.58-5.06,38.52-.15,3.05-.28,5.68-.52,7.85-.95,8.5-6.73,24.61-8.84,27.77l8.78,9.57c6.82-3.75,14.69-8.67,19.71-13.68.2,6.6,2.03,12.25,5.44,16.79l2.65,3.54c.87,4.18,2.64,8.77,6.09,12.71l6.05,6.92c.88,1.49,1.86,2.88,2.96,4.09l5.79,6.37c.38,1.33.75,2.7,1.08,4.07l3.56,14.93,4.1-6.15.21.83,7.69-3.23.92,24.99,16.5-25.66c2.28,1.12,5.09,1.94,8.42,1.94,1.83,0,3.71-.26,5.57-.78l9.83-2.73,10.35-2.04-11.97-8.97c-.06-.05-6.36-4.99-5.01-10.41l1.38-5.51c3.19-.64,7.23-1.89,10.57-4.32.88.1,1.87.16,2.95.16,6.53,0,12.15-2.33,16.25-6.73l.58-.63,5.9-10.97c2.84-1.03,5.38-3.06,6.22-6.43l.86-3.35c7.33-3.27,7.51-7.89,6.85-10.54-.14-.55-.34-1.14-.95-2.88-9.67-27.57-11.66-42.89-11.22-51.31,2.57-1.58,5.62-4.37,8.8-9.23.89.25,1.73.37,2.52.37,3.52,0,6.45-2.26,7.29-5.62,1.09-4.35-.91-9.11-3.81-12.39-.96-4.41-3.6-14.54-9.18-23.68,2.29-1.7,4.83-4.05,7.37-7.28ZM207.01,146.89c2.48,1.98,3.98,5.46,3.48,7.44-.5,1.98-5.96-1.98-5.96-1.98-6.78,13.39-12.39,13.39-12.39,13.39-3.47,20.32,11.41,58.5,11.89,60.48.5,1.98-5.96,3.88-5.96,3.88,0,0-1.23,4.79-1.75,6.78-.48,1.98-4.19,2.23-4.19,2.23l-6.93,12.88c-6.45,6.94-16.37,3.97-16.37,3.97-3.97,4.96-13.88,5.46-13.88,5.46l-2.48,9.91c-2.48,9.92,7.44,17.36,7.44,17.36-4.96.99-8.43-.99-8.43-.99l2.48,2.97c-8.92,2.48-13.88-4.46-13.88-4.46l-8.92,13.87-.5-13.38-9.42,3.96-1.99-7.93-3.96,5.95c-2.48-10.41-6.93-20.33-6.93-20.33l-1.49,6.94c-4.96-5.46-7.43-17.36-7.43-17.36l-1.49,6.45c-6.93-7.93-4.96-19.83-4.96-19.83l-3.47,3.97c-3.08-4.11-4.12-9.13-4.12-14.03,0-5.41,1.27-10.69,2.48-14.49-1.6,3.91-3.85,8.58-5.8,9.69-3.85,2.19-4.46,3.96-4.46,3.96,0-2.98-.49-6.94-.49-6.94-1.5,5.95-21.32,16.85-21.32,16.85,2.97-4.46,8.92-21.81,9.92-30.73.99-8.92.16-22.77,5.45-45.61,3.85-16.62,12.99-25.89,19.49-35.18,5.71-8.17,9.09-17.4,9.09-17.4-2.23-1.23-10.86-4.57-19.37-8.78-8.51-4.21-16.9-9.28-18.64-13.99,0-.02,0-.03,0-.04-3.49-9.45-15.85-33.67-24.78-38.13-8.92-4.46-.49-7.44-.49-7.44,67.21-2.14,74.35,19.29,76.85,22.02.4.43.68.4,1.06-.27.19-.33.35-.7.49-1.1,1.38-3.86.83-10.98-.07-18.17-.98-7.93-18.28-13.28-26.74-16.66-11.59-4.64-4.14-10.77-4.14-10.77,41.23-21.02,59.64,11.56,59.64,11.56,12.4-3.97,35.58-6.39,46.99,10.96,11.4,17.35-.89,34.15-.89,34.15,21.82-8.43,30.25-17.36,30.25-17.36-2.48,51.56-25.77,57.02-25.77,57.02,9.9,11.4,12.88,29.25,12.88,29.25Z"/>
  <path class="cls-1" d="M191.55,88.19c-10.44,6.45-11.6,12.25-11.6,12.25.83,1.16,5.8-2.48,7.79-1,1.98,1.49-3.64,6.29-3.64,7.62s2.64-.66,3.47-.17c.83.5-.32,3.81.5,4.14.83.33,7.95-3.31,14.74-10.93,6.78-7.62,8.43-21.36,8.43-21.36-2.64,2.99-9.27,2.99-19.69,9.44Z"/>
  <path class="cls-1" d="M133.44,213.69c-2.21,0-2.21,3.3-2.21,3.3l2.21.63s1.12-3.93,0-3.93Z"/>
  <path class="cls-1" d="M128.39,211.79c-.79.95-2.05,4.42-2.05,4.42h2.05l1.26-4.25s-.47-1.11-1.26-.17Z"/>
</svg>