<?xml version="1.0" encoding="UTF-8"?>
<svg id="Ebene_1" data-name="Ebene 1" xmlns="http://www.w3.org/2000/svg" viewBox="0 0 135.1 126.44">
  <defs>
    <linearGradient id="logoGradient" x1="0%" y1="0%" x2="100%" y2="100%">
      <stop offset="0%" stop-color="#7c3aed"/>
      <stop offset="100%" stop-color="#ffe600"/>
    </linearGradient>
    <style>
      .cls-1 {
        fill: url(#logoGradient);
      }
    </style>
  </defs>
  <path class="cls-1" d="M68.25,119.4c.04-.11-.02-.14-.13-.18-1.23-.42-2.35-1.03-3.47-1.64-.19-.1-.23-.21-.23-.38-.03-.89-.06-1.77-.09-2.66,0-.04,0-.06-.08-.05-.17.34-.28.73-.51,1.07-.12.17-.25.33-.39.49-.59.64-1.43.61-2.12.24-1.03-.55-1.71-1.37-2.29-2.26-.91-1.39-1.5-2.89-1.9-4.45-.32-1.26-.54-2.54-.74-3.82-.22-1.47-.47-2.93-.66-4.4-.16-1.23-.36-2.46-.52-3.69-.15-1.19-.32-2.38-.48-3.57-.18-1.29-.33-2.58-.49-3.86-.05-.37-.09-.73-.13-1.14.64.07,1.23.13,1.82.22.65.1,1.3.15,1.96.21.49.04.96.21,1.46.24.22.01.49-.05.65.09.17.15.03.38.08.58.15.48.07.97.11,1.45.08.87.11,1.74.17,2.61.04.64.08,1.28.13,1.92.06.81.12,1.62.18,2.43.07,1,.13,2,.21,2.99.08.92.13,1.85.23,2.77.06.5.04,1,.12,1.5.12.76.22,1.53.65,2.22.19.3.41.57.81.68.32.09.47.05.65-.2.21-.29.33-.62.39-.95.12-.68.19-1.36.1-2.05,0-.06,0-.11,0-.17-.03-1.47-.03-2.95-.11-4.42-.08-1.53-.12-3.06-.18-4.59,0-.03,0-.06,0-.09-.02-1.17-.03-2.35-.06-3.52-.02-.73-.06-1.46-.09-2.19,0-.09,0-.17,0-.26,0-.13.08-.15.22-.14.42.03.8.18,1.21.26.63.11,1.24.27,1.86.4.65.14,1.3.29,1.96.4.38.06.41.09.4.45,0,.44-.03.89-.03,1.33-.02,2.94-.02,5.88-.07,8.82-.03,2.11.02,4.22-.05,6.32-.06,1.71,0,3.41-.05,5.11-.02.76.02,1.52-.04,2.28-.08,1.15-.03,2.29-.05,3.44,0,.06-.02.11-.03.17h-.39Z"/>
  <path class="cls-1" d="M38.4,7.12s0-.05.01-.07h4.66s0,.05,0,.08c-1.56,0-3.12,0-4.68,0Z"/>
  <path class="cls-1" d="M95.26,7.05s.01.05,0,.08c-1.01,0-2.02,0-3.03,0,.01-.02.02-.05,0-.08h3.01Z"/>
  <path class="cls-1" d="M67.55,61.14c-.14.23,0,.45.02.67.04.72.02,1.43.03,2.15,0,.4.01.36.45.43.71.11,1.43.09,2.14.23.33.06.69.11,1.05.11.68,0,1.37.02,2.02.13,1.1.17,2.21.15,3.3.25,2.45.22,4.91.13,7.36.13,1.17,0,2.35-.14,3.52-.16.11,0,.22-.04.33-.06.27-.03.35.04.31.29-.14.85-.25,1.7-.42,2.54-.25,1.25-.47,2.5-.81,3.73-.07.24-.11.48-.15.72-.03.19-.11.29-.33.28-.98-.02-1.97.19-2.94.07-1.03-.13-2.06.02-3.08-.15-.27-.05-.55,0-.82-.01-.66-.03-1.32-.03-1.98-.11-.51-.06-1.01-.14-1.52-.18-.61-.04-1.21-.13-1.81-.23-.81-.13-1.64-.14-2.42-.3-1.06-.22-2.16-.18-3.21-.45-.32-.08-.67-.01-1-.11-.16-.05-.18.06-.19.17-.05.44-.05.88-.12,1.32-.08.49-.07,1-.11,1.5-.01.18.02.27.27.31.85.11,1.69.31,2.55.38.88.08,1.74.27,2.6.39.85.12,1.71.25,2.54.43.52.11,1.04.18,1.56.21.66.04,1.28.24,1.94.25.24,0,.48.01.72.03,1.05.09,2.11.17,3.16.25.11,0,.23,0,.34,0,.81,0,1.62.01,2.43.02.35,0,.37.01.28.3-.15.51-.3,1.02-.48,1.52-.46,1.28-.93,2.57-1.41,3.85-.16.42-.38.81-.54,1.23-.07.17-.17.25-.35.21-.46-.11-.93-.02-1.39-.11-.36-.07-.72-.1-1.09-.12-1.07-.07-2.13-.18-3.18-.39-.24-.05-.48-.05-.72-.09-1.24-.21-2.47-.45-3.68-.76-.5-.13-1.03-.2-1.51-.4-.21-.09-.46-.12-.7-.15-.66-.1-1.32-.26-1.96-.4-.79-.18-1.6-.25-2.39-.44-.46-.11-.95-.16-1.42-.2-.54-.04-1.08-.13-1.61-.22-.49-.08-.99-.06-1.48-.14-.77-.13-1.55-.2-2.33-.24-.71-.04-1.41-.15-2.12-.12-.11,0-.23,0-.34,0-.36-.04-.43-.11-.47-.44-.11-.88-.22-1.75-.33-2.63-.16-1.23-.34-2.46-.48-3.69-.12-.99-.29-1.98-.42-2.97-.17-1.23-.33-2.46-.51-3.69-.16-1.14-.31-2.29-.49-3.43-.21-1.38-.44-2.76-.68-4.14-.23-1.39-.47-2.78-.72-4.17-.19-1.04-.4-2.07-.6-3.11-.05-.27.01-.32.29-.2.29.13.6.12.89.15.75.08,1.47.28,2.21.37.76.09,1.5.28,2.25.41.94.17,1.87.38,2.81.55,1.03.19,2.07.35,3.11.52.98.16,1.96.22,2.94.38.48.08.99.08,1.49.14.84.09,1.69,0,2.53.2.5.12,1.06.04,1.6.04,1.78,0,3.56.02,5.34,0,.72,0,1.44.03,2.16-.14.35-.08.74-.03,1.11-.05.6-.03,1.2-.03,1.78-.1.63-.08,1.26-.18,1.9-.23,1.01-.07,1.99-.26,2.99-.39.32-.04.64-.02.95-.11.13-.04.25,0,.26.17,0,.14.05.28.06.42.02,1.49.05,2.98.03,4.47-.02,1.03-.12,2.05-.18,3.08-.01.18-.1.25-.3.25-.6,0-1.19.07-1.78.12-.49.04-.98.07-1.47.14-.62.09-1.25.07-1.88.1-1.97.11-3.94.1-5.91.08-1.08-.02-2.16-.06-3.24-.11-1.18-.05-2.36-.22-3.55-.26-.43-.01-.89.01-1.29-.09-.57-.15-1.14-.1-1.7-.2Z"/>
  <path class="cls-1" d="M26.16,69.73c1.47,3.29,3.1,6.51,4.89,9.67-.14.08-.26.05-.36.05-1.59,0-3.17.02-4.76-.03-.81-.03-1.63.03-2.41-.1-.76-.13-1.53-.08-2.29-.21-.16-.03-.24-.07-.32-.2-.63-.96-1.19-1.95-1.76-2.94-.75-1.31-1.45-2.63-2.1-3.98-.62-1.29-1.22-2.6-1.77-3.92-.46-1.11-.91-2.22-1.31-3.35-.45-1.29-.86-2.59-1.24-3.9-.42-1.48-.78-2.96-1.11-4.45-.25-1.17-.48-2.35-.61-3.54,0-.04,0-.09-.01-.13-.1-.52-.08-.49.51-.63.88-.21,1.77-.38,2.65-.6.22-.06.45-.05.66-.11.72-.2,1.46-.29,2.19-.44.65-.13,1.33-.18,1.99-.29.84-.13,1.69-.19,2.52-.3.52-.07,1.04-.13,1.56-.19.13-.01.26-.03.38-.03.87-.01,1.73-.13,2.59-.19.58-.04,1.15-.07,1.73-.08.61,0,1.22-.13,1.83-.09.92.05,1.84.03,2.75.13.86.09,1.72.18,2.56.34.97.18,1.94.4,2.86.7,1.52.49,2.99,1.1,4.33,1.92,1.65,1.01,3.08,2.19,3.98,3.81.54.97.86,1.98.89,3.07.01.6.02,1.2-.13,1.78-.36,1.45-1.17,2.66-2.5,3.59-1.21.85-2.6,1.38-4.07,1.76-.8.21-1.62.35-2.45.38-.32.01-.61.14-1,.1.27.36.65.54.96.76.94.63,1.87,1.28,2.8,1.93,1.15.79,2.31,1.58,3.45,2.38,1.38.97,2.76,1.94,4.12,2.94,1,.74,2.02,1.45,3.02,2.19.78.57,1.53,1.17,2.3,1.76.03.03.05.07.08.1-.04.13-.16.08-.24.08-1.29,0-2.59.04-3.88-.03-2.12-.11-4.24-.05-6.35-.04-.85,0-1.71.05-2.56.05-.75,0-.75,0-1.34-.42-1.77-1.27-3.54-2.54-5.31-3.81-1.64-1.18-3.3-2.35-4.94-3.54-.9-.65-1.77-1.32-2.65-1.98-.04-.03-.08-.04-.13-.06,0-.04-.03-.09-.06-.07-.07.06,0,.11.05.16ZM21.66,58.11c.21.89.55,1.72.82,2.57.27.86.61,1.71.91,2.56.1.28.15.33.48.28.73-.1,1.47-.13,2.21-.15.34,0,.68,0,1.02-.03.99-.07,1.98-.15,2.97-.23.88-.07,1.7-.26,2.44-.7.7-.41.99-1.02.9-1.73-.09-.69-.41-1.31-.97-1.82-.58-.53-1.3-.84-2.1-1.04-.47-.11-.95-.1-1.43-.15-.64-.06-1.28.02-1.93.04-.9.04-1.8.12-2.7.12-.11,0-.24,0-.33.04-.32.15-.66.1-.99.13-.42.04-.83.06-1.3.1Z"/>
  <path class="cls-1" d="M122.07,65.26c.08.13,0,.24-.03.34-.37.98-.72,1.97-1.13,2.95-.54,1.28-1.1,2.55-1.71,3.8-.49.99-.97,1.98-1.49,2.96-.14.26-.29.51-.52.71-.98.89-1.97,1.76-3.08,2.53-.67.46-1.36.89-2.07,1.31-.69.41-1.42.76-2.14,1.12-.42.21-.88.35-1.31.53-.84.34-1.72.59-2.61.83-.32.09-.66.13-.99.2-.7.15-1.4.25-2.12.29-.65.04-1.3.19-1.96.15-.88-.06-1.78-.08-2.62-.29-1.79-.44-3.38-1.2-4.55-2.54-.74-.85-1.21-1.81-1.52-2.84-.45-1.5-.52-3.04-.46-4.59.04-1,.15-1.99.3-2.98.18-1.15.44-2.3.77-3.43.34-1.17.73-2.33,1.19-3.47.52-1.3,1.12-2.58,1.81-3.82,1.21-2.17,2.81-4.1,4.62-5.91,1.41-1.41,2.98-2.65,4.71-3.73,1.36-.85,2.76-1.65,4.22-2.37,1.13-.56,2.29-1.07,3.48-1.53.92-.36,1.86-.68,2.8-.99,1.08-.35,2.21-.61,3.35-.74,1.11-.12,2.21-.03,3.29.29,1.07.31,1.99.84,2.87,1.43.1.07.12.15.12.26,0,1.42.06,2.84-.02,4.26-.07,1.16-.19,2.33-.34,3.49-.14,1.03-.25,2.06-.47,3.09-.14.68-.26,1.37-.4,2.06-.01.07-.01.15-.12.15-.12,0-.08-.1-.1-.16-.13-.61-.24-1.23-.48-1.83-.45-1.15-1.38-1.81-2.7-2.06-.57-.11-1.13-.2-1.72-.15-.75.06-1.5.14-2.22.33-.56.15-1.13.3-1.67.51-.68.26-1.34.53-1.97.87-.45.24-.9.48-1.33.76-.79.5-1.51,1.05-2.18,1.66-.68.61-1.31,1.25-1.87,1.94-.84,1.05-1.48,2.2-1.99,3.4-.59,1.39-1.02,2.82-1.32,4.28-.19.91-.32,1.82-.28,2.75.03.6.14,1.2.5,1.72.56.83,1.42,1.26,2.49,1.32,1,.06,1.99.01,2.99-.22,1.33-.31,2.56-.77,3.75-1.37,1.71-.87,3.12-2.04,4.47-3.28,1.35-1.24,2.54-2.6,3.69-3.98,0,0,.03,0,.08-.01Z"/>
  <path class="cls-1" d="M38.4,7.12c1.56,0,3.12,0,4.68,0,.91.04,1.81.23,2.7.39.74.14,1.48.34,2.21.56,1.21.37,2.38.84,3.52,1.36.48.22.95.47,1.42.71.12.06.19.12.09.27-.97,1.48-1.84,3.01-2.67,4.55-.46.86-.89,1.74-1.33,2.61-.04.08-.09.15-.12.23-.06.19-.15.2-.36.13-.69-.26-1.38-.51-2.08-.73-1.05-.34-2.11-.66-3.2-.89-1.04-.22-2.07-.45-3.14-.57-.26-.03-.53-.07-.8-.11-.65,1.32-1.29,2.66-1.91,4.09,3.33.38,6.55,1.04,9.66,2.1-.5,1.38-1.01,2.72-1.47,4.08-.38,1.1-.7,2.22-1.04,3.33-.07.22-.16.44-.2.66-.03.18-.15.18-.27.14-.61-.21-1.28-.24-1.9-.42-.47-.13-.97-.17-1.46-.26-.93-.16-1.87-.25-2.8-.39-.79-.12-1.58-.19-2.38-.23-.17-.01-.35-.05-.52-.09-.09-.02-.18-.06-.28-.07-.56-.04-.57-.04-.71.45-.3,1.05-.58,2.1-.87,3.15-.13.48-.26.96-.4,1.48.37,0,.7,0,1.04,0,1.03.02,2.05.16,3.08.2.46.01.91.15,1.38.17.45.03.9.05,1.34.15.69.15,1.39.18,2.08.3.49.08.97.18,1.47.25-.22,1.03-.44,2.03-.65,3.03-.1.49-.2.98-.29,1.47-.2,1.14-.39,2.28-.58,3.42-.03.18-.1.36-.12.54-.03.39-.08.42-.53.36-1.04-.13-2.08-.16-3.13-.18-.18,0-.35-.03-.52-.07-.46-.11-.92-.07-1.39-.09-2.41-.11-4.82-.11-7.22-.07-.9.02-1.81.03-2.71.08-.26.01-.52.09-.78.14-.12-.1-.09-.21-.07-.32.08-.56.15-1.13.24-1.69.11-.7.21-1.41.34-2.11.17-1,.37-1.99.57-2.99.19-.97.4-1.93.62-2.89.22-.97.47-1.94.73-2.91.22-.82.44-1.63.69-2.44.33-1.08.68-2.16,1.05-3.23.67-1.94,1.41-3.86,2.24-5.76.54-1.23,1.13-2.45,1.74-3.65.54-1.08,1.11-2.14,1.72-3.19.97-1.69,2.03-3.33,3.14-4.95.03-.05.1-.07.14-.11Z"/>
  <path class="cls-1" d="M92.24,7.12c1.01,0,2.02,0,3.03,0,.37.72.63,1.49.94,2.23.29.69.54,1.4.81,2.1.36.96.72,1.92,1.08,2.87.13.34.26.67.4,1.03-.41.08-.79.03-1.17.1-.39.07-.8.09-1.2.1-.5,0-.98.15-1.47.21-1.33.15-2.62.48-3.92.78-.45.11-.92.23-1.36.4-.21.08-.27.16-.19.34.19.45.29.93.46,1.39.27.74.5,1.5.74,2.25.06.18.12.23.33.17.62-.17,1.26-.32,1.88-.5.92-.25,1.85-.45,2.79-.62.98-.18,1.98-.32,2.96-.49.4-.07.8-.02,1.2-.11.21-.05.32.08.38.25.17.55.35,1.1.53,1.64.46,1.4.92,2.79,1.37,4.19.25.78.46,1.56.7,2.36-3.13.56-6.21,1.24-9.27,2.11.47,1.54.92,3.06,1.39,4.58.11.36.12.37.52.27.76-.2,1.53-.4,2.29-.61.67-.18,1.36-.33,2.03-.52.62-.17,1.26-.32,1.89-.47.79-.19,1.57-.4,2.38-.54.22-.04.3.04.34.2.13.48.27.97.4,1.45.29,1.04.58,2.07.86,3.11.28,1.06.53,2.12.8,3.17.07.26.14.53.21.79.05.21,0,.32-.27.4-.82.25-1.63.51-2.45.75-.77.23-1.54.45-2.31.69-.98.3-1.97.57-2.96.83-1.07.28-2.14.58-3.22.82-.82.18-1.63.39-2.45.59-.28.07-.58.05-.84.18-.21.11-.27,0-.32-.17-.22-.79-.46-1.57-.69-2.36-.32-1.09-.63-2.18-.96-3.26-.46-1.51-.93-3.02-1.39-4.53-.35-1.15-.68-2.31-1.03-3.46-.36-1.18-.75-2.36-1.12-3.54-.25-.81-.48-1.62-.73-2.43-.2-.64-.42-1.28-.62-1.93-.2-.62-.39-1.23-.58-1.85-.28-.88-.56-1.75-.85-2.63-.28-.85-.55-1.69-.83-2.54-.27-.82-.55-1.64-.82-2.46-.25-.76-.51-1.53-.76-2.29-.09-.26-.17-.52-.27-.77-.08-.21-.05-.37.19-.5.48-.26.93-.56,1.41-.82.59-.31,1.19-.61,1.8-.89.38-.18.78-.32,1.17-.49.87-.37,1.79-.6,2.69-.9.22-.07.44-.07.66-.14.91-.26,1.87-.35,2.8-.51.2-.04.42-.04.62-.06Z"/>
  <path class="cls-1" d="M108.68,20.39c.14.63.42,1.22.61,1.84.26.84.56,1.66.83,2.5.3.93.6,1.86.88,2.79.18.59.34,1.18.51,1.78.28,1.01.57,2.01.84,3.02.29,1.08.55,2.17.82,3.25.24.96.46,1.92.69,2.88.01.06.03.11.04.17.07.39.06.38-.35.55-1.38.56-2.81,1.01-4.2,1.54-.09.03-.18.06-.27.08-.12.03-.2,0-.24-.13-.11-.49-.25-.97-.37-1.45-.19-.78-.36-1.56-.56-2.34-.27-1.07-.56-2.14-.85-3.2-.28-1.02-.58-2.04-.87-3.06-.26-.92-.51-1.85-.79-2.77-.28-.95-.6-1.89-.88-2.84-.4-1.36-.85-2.71-1.31-4.06-.56-1.63-1.11-3.26-1.74-4.88-.45-1.14-.84-2.3-1.3-3.44-.66-1.63-1.35-3.26-2.03-4.89-.01-.03-.04-.05-.04-.08-.02-.11-.12-.23-.02-.32.08-.07.21-.04.32,0,.19.09.41.05.62.09,1.11.2,2.21.46,3.29.77,1.1.33,2.22.64,3.26,1.13.05.03.13.02.19.04.4.12.71.31.97.65,1.25,1.61,2.44,3.25,3.65,4.88.98,1.31,1.89,2.66,2.84,4,1.14,1.61,2.25,3.24,3.34,4.88.01.02.05.03.07.05.01.16.17.27.22.42.04.08.05.17.17.18,0,.04.02.08.03.12.02-.01.05-.02.05-.03,0-.05-.03-.08-.08-.09,0-.1.04-.2-.08-.27-.05-.15-.08-.31-.2-.43-.13-.49-.35-.94-.54-1.41-.56-1.36-1.17-2.71-1.84-4.03-.77-1.52-1.59-3.02-2.5-4.49-.4-.65-.8-1.3-1.24-1.92-.01-.02,0-.05.01-.09.07-.07.16-.02.21.02,1.43.98,2.84,1.99,4.16,3.09,1.12.93,1.91,2.07,2.73,3.19,1.05,1.42,1.97,2.92,2.79,4.45.76,1.43,1.45,2.88,2.02,4.38.62,1.62,1.17,3.26,1.57,4.93.19.78.38,1.56.57,2.33.1.41.07.4-.4.61-.6.27-1.2.54-1.81.79-.42.17-.83.37-1.24.55-.67.29-1.35.56-2.05.85-.39-.67-.79-1.33-1.16-2.01-.82-1.47-1.69-2.91-2.58-4.35-.94-1.54-1.91-3.06-2.9-4.58-1.14-1.76-2.31-3.51-3.48-5.26-.09-.13-.11-.31-.28-.39-.04-.08-.08-.16-.12-.25-.04-.06-.04-.18-.17-.12-.04.02,0,.1.08.12-.01.1.05.18.1.26Z"/>
  <path class="cls-1" d="M71.8,48.01c-.85,0-1.49,0-2.14,0-.23,0-.33-.05-.38-.27-.17-.7-.29-1.4-.43-2.1-.13-.63-.27-1.26-.36-1.89-.09-.64-.22-1.27-.32-1.9-.14-.86-.23-1.72-.38-2.58-.09-.51-.08-1.02-.15-1.53-.13-.95-.18-1.91-.24-2.86-.09-1.52-.19-3.04-.09-4.55.06-.88.11-1.77.17-2.65.01-.2.13-.35.21-.51.52-.98,1.07-1.94,1.62-2.91.96-1.71,1.95-3.4,3.12-5,.52-.71,1.08-1.42,1.8-2,.44-.35.9-.68,1.48-.83.78-.19,1.45.05,2.07.44,1.18.77,1.93,1.84,2.61,2.96.85,1.39,1.55,2.84,2.09,4.35.37,1.03.72,2.06,1.03,3.1.31,1.05.6,2.1.83,3.16.23,1.03.43,2.07.56,3.12.15,1.21.2,2.42.31,3.62.13,1.35.04,2.68-.15,4.01-.15,1.06-.41,2.1-.9,3.08-.42.86-1.05,1.6-1.91,2.16-.88.57-1.84.91-2.92,1.1-1.22.21-2.45.23-3.68.32-1.35.1-2.7.18-3.85.15ZM74.19,40.87c.97-.21,1.88-.46,2.79-.75.8-.25,1.34-.72,1.62-1.45.3-.81.22-1.64.31-2.46.06-.59-.03-1.17-.06-1.76-.02-.43-.06-.86-.15-1.28-.22-1.11-.48-2.21-.82-3.29-.32-1.01-.68-2.02-1.21-2.97-.26-.47-.56-.94-1.03-1.29-.31-.23-.65-.24-.99-.09-.3.14-.58.29-.83.51-.66.61-1.36,1.21-2.02,1.82-.13.12-.23.25-.17.48.09.39.14.79.21,1.18.3,1.83.67,3.65,1.04,5.47.31,1.54.66,3.08,1,4.62.09.4.2.81.31,1.25Z"/>
  <path class="cls-1" d="M35.32,7.64c-.6.84-1.13,1.63-1.67,2.42-.76,1.14-1.48,2.3-2.15,3.49-.91,1.59-1.74,3.2-2.5,4.85-.89,1.94-1.7,3.9-2.41,5.9-.48,1.33-.91,2.67-1.31,4.02-.39,1.34-.76,2.68-1.08,4.03-.29,1.25-.56,2.51-.82,3.77-.23,1.15-.4,2.31-.59,3.46-.2,1.23-.37,2.46-.48,3.69-.02.19-.1.25-.29.31-.25.08-.51.09-.75.11-.99.08-1.97.23-2.94.4-.3.05-.61.03-.9.12-.15.04-.24-.03-.22-.19.06-.57.08-1.14.16-1.7.07-.54.07-1.08.14-1.62.12-.96.24-1.93.38-2.89.18-1.26.4-2.5.65-3.75.12-.63.26-1.26.37-1.89.09-.5.22-1,.34-1.51-.41,0-.78.15-1.14.27-.88.28-1.75.6-2.63.9-.17.06-.26.13-.29.3-.11.62-.25,1.23-.36,1.85-.17.94-.34,1.88-.44,2.83-.09.82-.21,1.64-.29,2.46-.08.9-.17,1.79-.23,2.69-.05.73-.03,1.46-.05,2.19,0,.16,0,.32,0,.47-.02.37-.05.41-.46.47-.42.05-.79.23-1.19.32-.68.15-1.35.33-1.99.59-.25.1-.36.04-.36-.2,0-1.87-.05-3.73.02-5.59.04-.99.15-1.99.29-2.98.19-1.43.42-2.85.72-4.26.37-1.72.86-3.41,1.45-5.08.67-1.87,1.5-3.7,2.46-5.47.85-1.56,1.83-3.06,2.88-4.51.86-1.17,1.83-2.27,3-3.22.9-.73,1.82-1.43,2.76-2.12.53-.39,1.09-.73,1.64-1.1.11.13-.01.2-.07.27-1.11,1.41-2.19,2.84-3.14,4.34-.79,1.24-1.54,2.49-2.21,3.78-.47.9-.91,1.82-1.36,2.77.3-.12.57-.21.83-.33.78-.36,1.57-.67,2.4-.94.28-.09.53-.24.84-.28.14-.02.2-.14.25-.25.72-1.66,1.54-3.29,2.43-4.88.62-1.11,1.27-2.2,1.96-3.27.62-.96,1.28-1.91,1.96-2.85.16-.22.35-.35.62-.45.54-.18,1.05-.41,1.59-.58,1.24-.42,2.5-.81,3.78-1.11.11-.02.22-.03.42-.05Z"/>
  <path class="cls-1" d="M77.5,113.38c-.41.77-.81,1.55-1.35,2.26-.55.72-1.19,1.34-2.09,1.71-.8.33-1.73.18-2.26-.49-.52-.66-.81-1.39-1-2.16-.33-1.3-.44-2.62-.55-3.94-.18-2.09-.13-4.18-.13-6.27,0-.61.09-1.22.14-1.84.03-.5.04-1,.1-1.49.12-.83.21-1.66.35-2.49.1-.62.21-1.24.36-1.85.33-1.33.89-2.6,1.83-3.69.81-.94,1.93-1.42,3.28-1.45,1.01-.02,1.9.21,2.66.81.51.41.83.93,1.11,1.48.15.29.26.59.4.89.14-1.01.26-2.02.42-3.03.21-1.3.32-2.6.56-3.9.06-.31.05-.62.1-.93.03-.17.12-.19.28-.21.33-.03.64.07.96.07,1.51,0,3.01.01,4.52.02.11,0,.23,0,.34,0,.15,0,.2.08.19.19,0,.13-.01.26-.05.38-.27,1.03-.44,2.07-.68,3.1-.17.75-.34,1.51-.51,2.26-.18.81-.39,1.62-.58,2.42-.32,1.34-.63,2.67-.96,4.01-.33,1.36-.67,2.72-1.03,4.08-.41,1.55-.85,3.1-1.27,4.64-.29,1.07-.58,2.13-.88,3.2-.14.5-.3.99-.44,1.49-.04.15-.12.27-.26.34-1.23.64-2.38,1.39-3.66,2-.05-.51.23-.96.2-1.45.13-.13.07-.27.02-.43-.03.09-.07.17-.1.26ZM74.99,106.93c-.02.76,0,1.58.25,2.39.15.49.33.6.9.53.14-.02.24-.07.35-.13.33-.18.59-.43.83-.7.8-.94,1.13-2.04,1.42-3.15.25-.95.43-1.93.54-2.9.08-.75.11-1.51-.06-2.26-.12-.52-.42-.95-1.01-1.09-.54-.13-1.02.03-1.45.37-.55.43-.86.99-1.07,1.59-.23.65-.38,1.31-.46,2-.12,1.09-.26,2.18-.24,3.36ZM77.71,112.89s-.02.05-.03.08c0,0,.02.02.03.03.01-.02.04-.04.04-.06,0-.02-.02-.03-.04-.05Z"/>
  <path class="cls-1" d="M60.26,46.7c-.47-.22-.97-.2-1.43-.32-.58-.15-1.19-.23-1.77-.37-.99-.24-1.98-.43-2.98-.61-.7-.13-1.4-.32-2.11-.38-.2-.02-.23-.09-.24-.24-.01-.42.09-.83.12-1.24.04-.51.06-1.02.13-1.53.13-.88.2-1.76.31-2.63.12-.95.24-1.9.38-2.84.1-.72.18-1.44.35-2.15.15-.65.09-1.28-.05-1.9-.08-.39-.11-.79-.17-1.19-.16-1.03-.22-2.07-.32-3.11-.07-.79-.07-1.57-.13-2.36-.06-.9-.05-1.8-.04-2.7,0-.91.02-1.83.1-2.74.13-1.48.27-2.96.49-4.42.24-1.59.54-3.18.92-4.76.01-.06.03-.11.05-.17.09-.24.1-.24.34-.07,1.28.85,2.47,1.8,3.62,2.79.52.44.99.92,1.49,1.38.11.1.14.2.11.34-.13.69-.23,1.38-.36,2.07-.16.84-.28,1.69-.36,2.54-.1.97-.18,1.93-.25,2.9-.03.34,0,.69,0,1.03,0,.86,0,1.72,0,2.62.2-.1.27-.25.34-.37.87-1.45,1.8-2.86,2.79-4.24.46-.65.95-1.29,1.47-1.89.22-.25.23-.25.42.03,1.03,1.53,2.01,3.08,2.83,4.7.15.3.34.58.48.89.07.17.08.26-.07.41-1.55,1.52-2.7,3.27-3.73,5.09-.92,1.61-1.7,3.28-2.54,4.93-.05.09-.09.18-.09.29,0,.43-.03.86-.05,1.28-.04,1.16-.02,2.32-.05,3.48-.05,1.66.05,3.32.04,4.98,0,.16.03.32-.05.49Z"/>
  <path class="cls-1" d="M53.25,96.54c-1.4-.27-2.81-.55-4.24-.83-.05.27.06.49.11.71.21.86.43,1.72.67,2.58.35,1.27.71,2.53,1.06,3.8.17.61.31,1.23.58,1.81.3.64.73,1.2,1.4,1.59.01,0,.03.02.04.02.35.17.72.23.87-.29.14-.5.22-1.01.23-1.52,0-.34.05-.68.08-1.02.16.02.16.12.18.19.18.9.35,1.8.54,2.69.18.88.39,1.76.58,2.64.1.48.25.95.27,1.43.02.65-.22,1.23-.91,1.59-.31.16-.61.16-.92.05-.67-.23-1.24-.6-1.74-1.04-1.68-1.43-2.88-3.17-3.98-4.97-.49-.8-.84-1.66-1.18-2.51-.49-1.26-1.01-2.52-1.5-3.78-.45-1.17-.88-2.35-1.31-3.53-.16-.45-.32-.9-.48-1.34-.07-.19-.17-.29-.43-.33-.58-.08-1.16-.21-1.73-.34-.19-.04-.31-.16-.38-.34-.44-1.16-.9-2.31-1.35-3.47-.08-.2-.13-.41-.2-.63.84-.01,1.39-.43,1.81-1.02.52-.73.79-1.55.96-2.4.21-1.04.26-2.1.33-3.15.02-.3.02-.31.36-.32.86-.01,1.71.11,2.56.06.19,0,.36.12.56.09.13-.02.12.11.14.19.06.29.12.59.18.88.19.94.38,1.87.57,2.81.09.45.19.9.28,1.34.04.2.16.32.42.31.59-.02,1.17.12,1.76.19.53.06,1.06.06,1.58.12.32.03.62.16.95.13.16-.01.15.1.18.2.12.5.16,1.02.25,1.52.2,1.14.36,2.28.56,3.43.12.69.23,1.38.34,2.08.02.11.04.23-.05.37Z"/>
  <path class="cls-1" d="M40.6,94.46c-.28-.29-.49-.61-.7-.92-.65-.94-1.34-1.85-2.32-2.55-.68-.49-1.4-.93-2.18-1.31-.86-.43-1.78-.68-2.73-.89-.29-.06-.58-.05-.87-.03-.4.03-.49.18-.33.52.23.48.56.88,1.03,1.2.81.55,1.73.93,2.62,1.34,1.81.85,3.48,1.85,4.91,3.15,1.07.98,1.93,2.08,2.69,3.26.92,1.42,1.62,2.93,2.2,4.48.15.41.21.86.27,1.3.04.3-.08.59-.22.87-.15.3-.56.39-1.02.27-.42-.11-.78-.33-1.12-.56-1.15-.8-2.18-1.71-3.21-2.63-.93-.83-1.89-1.63-2.81-2.46-.63-.57-1.22-1.18-1.81-1.79-.73-.75-1.45-1.52-2.17-2.29-.09-.09-.23-.2-.17-.33.05-.11.15-.24.26-.3.15-.08.21.09.3.16,1.5,1.29,3.08,2.49,4.71,3.64.56.39,1.15.77,1.78,1.07.08.04.16.1.27.09.11-.1,0-.18-.05-.26-.48-.87-1.25-1.5-2.11-2.06-1.12-.74-2.27-1.43-3.4-2.16-.93-.6-1.85-1.23-2.74-1.87-.52-.38-1.01-.79-1.5-1.21-1.11-.94-2.16-1.93-3.07-3.02-.62-.74-1.18-1.53-1.58-2.39-.3-.63-.44-1.28-.37-1.97.06-.58.38-1.03.89-1.37.62-.4,1.33-.58,2.09-.67.86-.1,1.71-.06,2.55.03.69.08,1.38.23,2.05.44.95.31,1.85.7,2.71,1.18.45.25.89.51,1.33.77.13.08.22.19.28.34.28.75.58,1.51.88,2.26.44,1.09.87,2.17,1.32,3.25.43,1.03.88,2.05,1.32,3.08.04.09.1.18.01.32Z"/>
  <path class="cls-1" d="M109.09,88.94c-.02.45-.33,1.01-.68,1.55-.85,1.34-1.93,2.52-3.02,3.71-.87.95-1.8,1.86-2.74,2.76-1.12,1.08-2.26,2.13-3.44,3.16-1.07.93-2.1,1.9-3.18,2.83-1.19,1.03-2.36,2.09-3.72,2.95-.25.16-.52.28-.82.34-.38.07-.65-.06-.73-.39-.12-.49.02-.96.16-1.43.37-1.19.91-2.33,1.46-3.47.58-1.22,1.21-2.42,1.9-3.59.97-1.66,2.06-3.25,3.37-4.72.73-.82,1.58-1.53,2.49-2.2.58-.42,1.16-.85,1.83-1.16,1.01-.48,2.02-.96,3.13-1.27.68-.19,1.34-.35,2.06-.41.3-.02.57-.07.88,0,.81.17,1.07.41,1.07,1.33ZM96.1,100.81c.36-.06.58-.29.81-.47,1.11-.85,2.09-1.82,3.03-2.81.74-.77,1.41-1.59,2.06-2.42.41-.52.84-1.04.98-1.69-.16-.06-.3-.02-.47.01-.35.08-.64.25-.93.42-1.09.66-1.98,1.51-2.74,2.47-.89,1.11-1.64,2.3-2.34,3.52-.17.3-.36.59-.41.96Z"/>
  <path class="cls-1" d="M89.24,91.82c.41.3.81.34,1.21.37.64.04,1.3.03,1.93-.09.55-.1,1.07-.28,1.57-.52.43-.2.81-.46,1.17-.74.08-.07.16-.15.33-.08-.32.79-.63,1.59-.96,2.39-.37.91-.74,1.82-1.13,2.72-.42.98-.85,1.96-1.29,2.94-.49,1.1-.98,2.19-1.48,3.29-.52,1.13-1.05,2.26-1.62,3.38-.57,1.13-1.14,2.26-1.7,3.4-.15.3-.37.53-.68.74-.93.61-1.88,1.18-2.82,1.76-.35.21-.67.47-1.17.64,2.51-6.67,4.69-13.37,6.64-20.2Z"/>
  <path class="cls-1" d="M94.53,86.08c.34,0,.68-.01,1.02,0,.96.04,1.57.68,1.43,1.56-.24,1.55-1.23,2.6-2.8,3.26-.96.41-1.97.61-3.03.49-1.26-.14-1.7-.68-1.66-1.62.04-1.09.48-2.06,1.43-2.8.35-.27.75-.47,1.19-.62.78-.26,1.6-.29,2.42-.28Z"/>
  <path class="cls-1" d="M116.85,24.25c-.05-.15-.21-.25-.22-.42.04-.04.08-.07.12-.11.12.13.15.28.2.43-.03.03-.06.06-.1.09Z"/>
  <path class="cls-1" d="M77.5,113.38c.03-.09.07-.17.1-.26.05.16.12.31-.02.43-.03-.06-.06-.12-.09-.18Z"/>
  <path class="cls-1" d="M108.67,20.14c.04.08.08.16.12.25-.04,0-.07,0-.11,0-.05-.08-.11-.16-.1-.26.03,0,.06,0,.09,0Z"/>
  <path class="cls-1" d="M26.16,69.73c-.05-.05-.12-.1-.05-.16.03-.02.06.03.06.07,0,.03,0,.06-.01.1Z"/>
  <path class="cls-1" d="M116.85,24.25s.06-.06.1-.09c.12.07.08.18.08.27h0c-.13,0-.14-.11-.17-.18Z"/>
  <path class="cls-1" d="M108.67,20.14s-.06,0-.09,0c-.07-.02-.12-.1-.08-.12.12-.06.12.06.17.12Z"/>
  <path class="cls-1" d="M117.03,24.44c.05.01.08.04.08.09,0,.01-.03.02-.05.03,0-.04-.02-.08-.03-.12h0Z"/>
  <path class="cls-1" d="M77.71,112.89s.04.04.04.05c0,.02-.03.04-.04.06,0-.01-.03-.02-.03-.03,0-.03.02-.05.03-.08Z"/>
</svg>